# xmcd CD database file
#
# Track frame offsets:
#	150
#	25206
#	46469
#	65712
#	80774
#	108998
#	128058
#	158770
#	184844
#	217145
#	235935
#	255448
#	277588
#
# Disc length: 3981 seconds
#
# Revision: 0
# Processed by: cddbd v1.5.2PL0 Copyright (c) Steve Scherf et al.
# Submitted via: CDex 1.70beta2
#
DISCID=b30f8b0d
DTITLE=Various Artist - The Very Best Of Fusion Jazz CD1
DYEAR=2008
DGENRE=Jazz
TTITLE0=Drive Time - Chris Botti
TTITLE1=Pacific Coast Highway - Marc Antoine 
TTITLE2=Whenever the Rain Falls - Joyce Cooling
TTITLE3=Flirt - Mindi Abair
TTITLE4=Just Because - Bernie Williams
TTITLE5=The Chief - Gary Burton
TTITLE6=The Island - Yoshiko Kishino
TTITLE7=Cat Tail - Dave Valentin
TTITLE8=Good Thing - Robben Ford and the Blue Line
TTITLE9=Home - Will Downing
TTITLE10=Sweet Memories - Richard Elliot
TTITLE11=Turning Night into Day - Nelson Rangell
TTITLE12=If You Don't Know Me by Now - Gerald Albright
EXTD=YEAR: 2008
EXTT0=
EXTT1=
EXTT2=
EXTT3=
EXTT4=
EXTT5=
EXTT6=
EXTT7=
EXTT8=
EXTT9=
EXTT10=
EXTT11=
EXTT12=
PLAYORDER=
